<svg xmlns="http://www.w3.org/2000/svg" xmlns:xlink="http://www.w3.org/1999/xlink" id="Calque_1" x="0px" y="0px" viewBox="0 0 220.6 39.13" style="enable-background:new 0 0 220.6 39.13;" xml:space="preserve">
<style type="text/css">
	.st0{fill:#FFFFFF;}
	.st1{fill:#FDFDFD;}
</style>
<g>
	<g>
		<path class="st0" d="M38.06,9.22c-1.51,0-2.77,0.45-3.77,1.34c-1.19,1.06-1.79,2.45-1.79,4.16s0.6,3.1,1.79,4.16    c1.01,0.9,2.27,1.34,3.8,1.34c1.53,0,2.79-0.45,3.79-1.34c0.6-0.53,1.05-1.19,1.37-1.96c0.28-0.69,0.42-1.4,0.42-2.13    c0-1.79-0.6-3.2-1.79-4.23C40.85,9.68,39.58,9.23,38.06,9.22z"></path>
		<path class="st0" d="M63.02,12.7c0.41-0.31,0.61-0.79,0.61-1.44c0-0.67-0.19-1.14-0.58-1.42c-0.39-0.28-1.04-0.42-1.96-0.42h-6.07    v3.69h6.07C62.01,13.1,62.65,12.97,63.02,12.7z"></path>
		<path class="st0" d="M63.25,16.17c-0.47-0.3-1.26-0.45-2.36-0.45h-5.87v4.31h5.87c1.09,0,1.87-0.15,2.36-0.45    c0.55-0.35,0.82-0.92,0.82-1.71C64.07,17.09,63.8,16.52,63.25,16.17z"></path>
		<path class="st0" d="M2.65,2.81v24.19H109.1V2.81H2.65z M25.3,7.18c-0.28,0.08-0.47,0.18-0.58,0.3c-0.11,0.12-0.16,0.3-0.16,0.53    v13.41c0,0.24,0.05,0.42,0.16,0.55c0.11,0.12,0.3,0.22,0.58,0.3v0.37h-4.99v-0.37c0.32-0.07,0.49-0.24,0.49-0.5    c0-0.15-0.19-0.43-0.57-0.81l-8.87-9.16v9.63c0,0.24,0.05,0.42,0.16,0.55c0.11,0.12,0.3,0.22,0.58,0.3v0.37H7.45v-0.37    c0.28-0.08,0.47-0.18,0.58-0.3c0.11-0.12,0.16-0.31,0.16-0.55V8.01c0-0.23-0.05-0.41-0.16-0.53c-0.11-0.12-0.3-0.22-0.58-0.3V6.8    h5.38v0.37c-0.33,0.08-0.5,0.26-0.5,0.53c0,0.19,0.11,0.39,0.32,0.61l8.73,9.08V8.01c0-0.23-0.05-0.41-0.16-0.53    c-0.11-0.12-0.3-0.22-0.58-0.3V6.8h4.65V7.18z M45.95,19.06c-1.6,2.57-4.23,3.85-7.88,3.85c-2.74,0-4.92-0.75-6.53-2.24    c-0.87-0.8-1.52-1.75-1.97-2.87c-0.39-0.98-0.59-2.01-0.59-3.1c0-1.58,0.41-3.03,1.22-4.35c1.56-2.51,4.17-3.79,7.86-3.84    c2.76,0,4.95,0.75,6.57,2.24c1.71,1.56,2.57,3.58,2.57,6.05C47.18,16.34,46.77,17.75,45.95,19.06z M66.04,21.48    c-0.53,0.41-1.14,0.71-1.83,0.89c-0.69,0.18-1.55,0.27-2.57,0.27H50.83v-0.37c0.28-0.08,0.47-0.18,0.58-0.3    c0.11-0.12,0.16-0.31,0.16-0.55V8.02c0-0.24-0.05-0.42-0.16-0.55c-0.11-0.12-0.3-0.22-0.58-0.3V6.8h10.72    c1.03,0,1.86,0.08,2.48,0.23c0.63,0.15,1.18,0.42,1.65,0.79c0.94,0.73,1.4,1.79,1.4,3.18c0,1.55-0.72,2.66-2.15,3.34    c1.78,0.67,2.67,1.92,2.67,3.73C67.6,19.52,67.08,20.66,66.04,21.48z M86.29,23.38h-0.37c-0.08-0.28-0.18-0.47-0.3-0.58    c-0.12-0.11-0.31-0.16-0.55-0.16H71.14v-0.37c0.28-0.08,0.47-0.18,0.58-0.3c0.11-0.12,0.16-0.31,0.16-0.55V8.02    c0-0.24-0.05-0.42-0.16-0.55c-0.11-0.12-0.3-0.22-0.58-0.3V6.8h4.94v0.37c-0.28,0.07-0.47,0.17-0.58,0.3    c-0.11,0.13-0.16,0.31-0.16,0.55v12h9.73c0.24,0,0.42-0.05,0.55-0.16c0.12-0.11,0.22-0.3,0.3-0.58h0.37V23.38z M104.7,23.38h-0.37    c-0.08-0.28-0.18-0.47-0.3-0.58c-0.12-0.11-0.3-0.16-0.53-0.16H89.11v-0.37c0.28-0.08,0.47-0.18,0.58-0.3s0.16-0.31,0.16-0.55    V8.02c0-0.24-0.05-0.42-0.16-0.55c-0.11-0.12-0.3-0.22-0.58-0.3V6.8h14.1c0.23,0,0.41-0.06,0.53-0.17c0.12-0.11,0.22-0.3,0.3-0.58    h0.37v4.09h-0.37c-0.08-0.27-0.18-0.47-0.3-0.58c-0.12-0.11-0.3-0.16-0.53-0.16h-9.91v3.76h6.43c0.23,0,0.41-0.05,0.53-0.16    c0.12-0.11,0.22-0.3,0.3-0.58h0.37v4h-0.37c-0.08-0.27-0.18-0.46-0.3-0.57c-0.12-0.11-0.3-0.17-0.53-0.17h-6.43v4.34h10.18    c0.23,0,0.41-0.05,0.53-0.16c0.12-0.11,0.22-0.3,0.3-0.58h0.37V23.38z"></path>
	</g>
	<g>
		<g>
			<path class="st1" d="M132.78,8.15l-1.89,3.73l-0.32-0.19c0.01-0.08,0.01-0.14,0.01-0.19c0-0.26-0.22-0.55-0.67-0.85     c-1.38-0.96-2.99-1.44-4.85-1.44c-0.82,0-1.54,0.1-2.17,0.3c-0.46,0.15-0.82,0.39-1.11,0.7c-0.28,0.31-0.42,0.65-0.42,1.01     c0,0.59,0.36,1,1.08,1.22c0.37,0.11,1.17,0.22,2.39,0.35l1.82,0.19c1.08,0.12,1.96,0.27,2.63,0.48c0.67,0.2,1.26,0.48,1.78,0.85     c0.53,0.38,0.94,0.88,1.25,1.49c0.3,0.62,0.46,1.28,0.46,1.98c0,1.11-0.36,2.1-1.08,2.97c-0.65,0.79-1.66,1.37-3.03,1.75     c-1.02,0.29-2.12,0.43-3.28,0.43c-2.09,0-4.16-0.5-6.2-1.51c-0.43-0.2-0.69-0.3-0.78-0.3c-0.1,0-0.26,0.08-0.48,0.26l-0.34-0.17     l1.72-3.89l0.34,0.16c0,0.07,0,0.12,0,0.15c0,0.35,0.17,0.67,0.5,0.96c0.5,0.45,1.28,0.84,2.33,1.16     c1.05,0.32,2.05,0.49,2.99,0.49c1.03,0,1.91-0.17,2.63-0.52c0.4-0.19,0.72-0.45,0.96-0.77c0.24-0.32,0.36-0.65,0.36-1     c0-0.52-0.28-0.9-0.85-1.12c-0.39-0.15-1.19-0.3-2.39-0.43l-1.79-0.19c-1.2-0.12-2.05-0.24-2.54-0.35     c-0.49-0.11-0.99-0.29-1.49-0.54c-0.7-0.35-1.26-0.87-1.66-1.57c-0.36-0.63-0.55-1.35-0.55-2.16c0-1.34,0.46-2.45,1.38-3.32     c1.21-1.15,3.02-1.73,5.43-1.73c1.01,0,1.96,0.1,2.83,0.31c0.87,0.21,1.96,0.58,3.27,1.14c0.45,0.18,0.72,0.27,0.82,0.27     c0.16,0,0.35-0.09,0.57-0.27L132.78,8.15z"></path>
			<path class="st1" d="M140.52,15.69v4.34h10.18c0.23,0,0.41-0.05,0.53-0.16c0.12-0.11,0.22-0.3,0.3-0.58h0.37v4.09h-0.37     c-0.08-0.28-0.18-0.47-0.3-0.58c-0.12-0.11-0.3-0.16-0.53-0.16h-14.38v-0.37c0.28-0.08,0.47-0.18,0.58-0.3     c0.11-0.12,0.16-0.31,0.16-0.55V8.02c0-0.24-0.05-0.42-0.16-0.55c-0.11-0.12-0.3-0.22-0.58-0.3V6.8h14.1     c0.23,0,0.41-0.06,0.53-0.17c0.12-0.11,0.22-0.3,0.3-0.58h0.37v4.09h-0.37c-0.08-0.27-0.18-0.47-0.3-0.58     c-0.12-0.11-0.3-0.16-0.53-0.16h-9.91v3.76h6.43c0.23,0,0.41-0.05,0.53-0.16c0.12-0.11,0.22-0.3,0.3-0.58h0.37v4h-0.37     c-0.08-0.27-0.18-0.46-0.3-0.57s-0.3-0.17-0.53-0.17H140.52z"></path>
			<path class="st1" d="M159.44,11.79v9.63c0,0.24,0.05,0.42,0.16,0.55c0.11,0.12,0.3,0.22,0.58,0.3v0.37h-4.65v-0.37     c0.28-0.08,0.47-0.18,0.58-0.3c0.11-0.12,0.16-0.31,0.16-0.55V8.01c0-0.23-0.05-0.41-0.16-0.53c-0.11-0.12-0.3-0.22-0.58-0.3V6.8     h5.38v0.37c-0.33,0.08-0.5,0.26-0.5,0.53c0,0.19,0.11,0.39,0.32,0.61l8.73,9.08V8.01c0-0.23-0.05-0.41-0.16-0.53     c-0.11-0.12-0.3-0.22-0.58-0.3V6.8h4.65v0.37c-0.28,0.08-0.47,0.18-0.58,0.3c-0.11,0.12-0.16,0.3-0.16,0.53v13.41     c0,0.24,0.05,0.42,0.16,0.55c0.11,0.12,0.3,0.22,0.58,0.3v0.37h-4.99v-0.37c0.32-0.07,0.49-0.24,0.49-0.5     c0-0.15-0.19-0.43-0.57-0.81L159.44,11.79z"></path>
			<path class="st1" d="M192.13,8.15l-1.89,3.73l-0.32-0.19c0.01-0.08,0.01-0.14,0.01-0.19c0-0.26-0.23-0.55-0.67-0.85     c-1.38-0.96-2.99-1.44-4.85-1.44c-0.82,0-1.54,0.1-2.17,0.3c-0.46,0.15-0.83,0.39-1.11,0.7c-0.28,0.31-0.42,0.65-0.42,1.01     c0,0.59,0.36,1,1.08,1.22c0.37,0.11,1.17,0.22,2.39,0.35l1.82,0.19c1.08,0.12,1.96,0.27,2.63,0.48c0.67,0.2,1.26,0.48,1.78,0.85     c0.53,0.38,0.94,0.88,1.25,1.49c0.31,0.62,0.46,1.28,0.46,1.98c0,1.11-0.36,2.1-1.08,2.97c-0.65,0.79-1.66,1.37-3.03,1.75     c-1.02,0.29-2.11,0.43-3.28,0.43c-2.09,0-4.16-0.5-6.21-1.51c-0.43-0.2-0.69-0.3-0.78-0.3c-0.1,0-0.26,0.08-0.48,0.26l-0.34-0.17     l1.72-3.89l0.34,0.16c0,0.07,0,0.12,0,0.15c0,0.35,0.17,0.67,0.5,0.96c0.5,0.45,1.28,0.84,2.33,1.16     c1.05,0.32,2.05,0.49,2.99,0.49c1.03,0,1.91-0.17,2.63-0.52c0.4-0.19,0.72-0.45,0.96-0.77c0.24-0.32,0.36-0.65,0.36-1     c0-0.52-0.28-0.9-0.85-1.12c-0.39-0.15-1.19-0.3-2.39-0.43l-1.79-0.19c-1.2-0.12-2.05-0.24-2.54-0.35     c-0.49-0.11-0.99-0.29-1.49-0.54c-0.7-0.35-1.26-0.87-1.66-1.57c-0.36-0.63-0.55-1.35-0.55-2.16c0-1.34,0.46-2.45,1.38-3.32     c1.21-1.15,3.02-1.73,5.43-1.73c1.01,0,1.96,0.1,2.83,0.31c0.87,0.21,1.96,0.58,3.27,1.14c0.45,0.18,0.72,0.27,0.82,0.27     c0.16,0,0.35-0.09,0.57-0.27L192.13,8.15z"></path>
			<path class="st1" d="M199.87,15.69v4.34h10.18c0.23,0,0.41-0.05,0.53-0.16c0.12-0.11,0.22-0.3,0.3-0.58h0.37v4.09h-0.37     c-0.08-0.28-0.18-0.47-0.3-0.58c-0.12-0.11-0.3-0.16-0.53-0.16h-14.38v-0.37c0.28-0.08,0.47-0.18,0.58-0.3     c0.11-0.12,0.16-0.31,0.16-0.55V8.02c0-0.24-0.05-0.42-0.16-0.55c-0.11-0.12-0.3-0.22-0.58-0.3V6.8h14.1     c0.23,0,0.41-0.06,0.53-0.17c0.12-0.11,0.22-0.3,0.3-0.58h0.37v4.09h-0.37c-0.08-0.27-0.18-0.47-0.3-0.58     c-0.12-0.11-0.3-0.16-0.53-0.16h-9.91v3.76h6.43c0.23,0,0.41-0.05,0.53-0.16c0.12-0.11,0.22-0.3,0.3-0.58h0.37v4h-0.37     c-0.08-0.27-0.18-0.46-0.3-0.57c-0.12-0.11-0.3-0.17-0.53-0.17H199.87z"></path>
		</g>
	</g>
	<g>
		<g>
			<path class="st1" d="M67.27,32.05v3.65c0,0.69-0.13,1.21-0.38,1.55c-0.46,0.62-1.4,0.93-2.84,0.93c-1.04,0-1.83-0.17-2.38-0.5     c-0.32-0.19-0.54-0.46-0.67-0.79c-0.12-0.33-0.18-0.73-0.18-1.18v-3.65c0-0.1-0.02-0.17-0.07-0.22     c-0.04-0.05-0.12-0.09-0.24-0.12v-0.15h2.03v0.15c-0.11,0.03-0.19,0.07-0.24,0.12s-0.07,0.13-0.07,0.23v3.25     c0,0.38,0.02,0.65,0.06,0.83c0.04,0.18,0.12,0.33,0.23,0.45c0.31,0.32,0.83,0.49,1.56,0.49c0.74,0,1.26-0.16,1.57-0.49     c0.11-0.12,0.19-0.27,0.23-0.45c0.04-0.18,0.06-0.46,0.06-0.83v-3.25c0-0.1-0.02-0.17-0.07-0.22c-0.04-0.05-0.12-0.09-0.24-0.12     v-0.15h1.92v0.15c-0.11,0.03-0.19,0.07-0.24,0.12C67.29,31.88,67.27,31.95,67.27,32.05z"></path>
			<path class="st1" d="M74.6,33.6v3.96c0,0.1,0.02,0.17,0.07,0.22c0.04,0.05,0.12,0.09,0.24,0.12v0.15h-1.91v-0.15     c0.11-0.03,0.19-0.07,0.24-0.12c0.04-0.05,0.07-0.13,0.07-0.22v-5.51c0-0.1-0.02-0.17-0.07-0.22c-0.05-0.05-0.12-0.09-0.24-0.12     v-0.15h2.21v0.15c-0.14,0.03-0.2,0.11-0.2,0.22c0,0.08,0.04,0.16,0.13,0.25l3.59,3.73v-3.86c0-0.1-0.02-0.17-0.07-0.22     c-0.04-0.05-0.12-0.09-0.24-0.12v-0.15h1.91v0.15c-0.11,0.03-0.19,0.07-0.24,0.12c-0.04,0.05-0.07,0.12-0.07,0.22v5.51     c0,0.1,0.02,0.17,0.07,0.22c0.05,0.05,0.12,0.09,0.24,0.12v0.15h-2.05v-0.15c0.13-0.03,0.2-0.1,0.2-0.2     c0-0.06-0.08-0.17-0.23-0.33L74.6,33.6z"></path>
			<path class="st1" d="M86.18,37.56v-5.51c0-0.1-0.02-0.17-0.07-0.22c-0.05-0.05-0.12-0.09-0.24-0.12v-0.15h2.03v0.15     c-0.11,0.03-0.19,0.07-0.24,0.12c-0.04,0.05-0.07,0.13-0.07,0.22v5.51c0,0.1,0.02,0.17,0.07,0.23c0.05,0.05,0.12,0.09,0.24,0.12     v0.15h-2.03v-0.15c0.11-0.03,0.19-0.07,0.24-0.12C86.16,37.73,86.18,37.66,86.18,37.56z"></path>
			<path class="st1" d="M96.67,36.17l1.73-3.82c0.07-0.16,0.11-0.29,0.11-0.38c0-0.14-0.11-0.23-0.32-0.27v-0.15h2.23v0.15     c-0.14,0.02-0.24,0.06-0.29,0.12c-0.05,0.06-0.15,0.23-0.28,0.52l-2.26,4.87c-0.1,0.21-0.14,0.34-0.14,0.41     c0,0.16,0.1,0.26,0.3,0.29v0.15H95.5v-0.15c0.2-0.03,0.3-0.13,0.3-0.29c0-0.06-0.05-0.19-0.14-0.4l-2.26-4.87     c-0.13-0.29-0.23-0.46-0.28-0.52c-0.05-0.06-0.15-0.1-0.29-0.12v-0.15h2.31v0.15c-0.21,0.04-0.31,0.13-0.31,0.27     c0,0.09,0.04,0.21,0.11,0.38L96.67,36.17z"></path>
			<path class="st1" d="M107.06,35.21v1.78h4.19c0.1,0,0.17-0.02,0.22-0.07c0.05-0.04,0.09-0.12,0.12-0.24h0.15v1.68h-0.15     c-0.03-0.11-0.07-0.19-0.12-0.24s-0.12-0.07-0.22-0.07h-5.91v-0.15c0.12-0.03,0.19-0.07,0.24-0.12c0.04-0.05,0.07-0.13,0.07-0.22     v-5.51c0-0.1-0.02-0.17-0.07-0.22c-0.04-0.05-0.12-0.09-0.24-0.12v-0.15h5.8c0.09,0,0.17-0.02,0.22-0.07     c0.05-0.05,0.09-0.12,0.12-0.24h0.15v1.68h-0.15c-0.03-0.11-0.07-0.19-0.12-0.24c-0.05-0.05-0.12-0.07-0.22-0.07h-4.07v1.54h2.64     c0.1,0,0.17-0.02,0.22-0.07c0.05-0.04,0.09-0.12,0.12-0.24h0.15v1.64h-0.15c-0.03-0.11-0.07-0.19-0.12-0.24     c-0.05-0.05-0.12-0.07-0.22-0.07H107.06z"></path>
			<path class="st1" d="M118.85,35.41v2.16c0,0.1,0.02,0.17,0.07,0.22c0.05,0.05,0.12,0.09,0.24,0.12v0.15h-2.03v-0.15     c0.11-0.03,0.19-0.07,0.24-0.12c0.04-0.05,0.07-0.12,0.07-0.22v-5.51c0-0.1-0.02-0.17-0.07-0.22c-0.04-0.05-0.12-0.09-0.24-0.12     v-0.15h4.07c0.5,0,0.89,0.03,1.18,0.09c0.29,0.06,0.54,0.16,0.76,0.3c0.25,0.17,0.44,0.39,0.56,0.67     c0.12,0.27,0.18,0.57,0.18,0.88c0,1.06-0.59,1.68-1.77,1.86l1.26,1.8c0.22,0.31,0.39,0.52,0.49,0.61     c0.1,0.09,0.23,0.14,0.38,0.15v0.15h-2.35v-0.15c0.16-0.03,0.24-0.08,0.24-0.17c0-0.06-0.08-0.2-0.22-0.41l-1.32-1.92H118.85z      M118.85,34.33h2.19c0.32,0,0.55-0.01,0.69-0.03c0.13-0.02,0.26-0.06,0.37-0.12c0.24-0.13,0.36-0.37,0.36-0.71     c0-0.34-0.12-0.57-0.36-0.71c-0.11-0.06-0.24-0.1-0.36-0.12c-0.13-0.02-0.36-0.03-0.69-0.03h-2.19V34.33z"></path>
			<path class="st1" d="M135.46,32.1l-0.78,1.53l-0.13-0.08c0-0.03,0.01-0.06,0.01-0.08c0-0.11-0.09-0.22-0.28-0.35     c-0.57-0.39-1.23-0.59-1.99-0.59c-0.34,0-0.63,0.04-0.89,0.12c-0.19,0.06-0.34,0.16-0.46,0.29c-0.12,0.13-0.17,0.26-0.17,0.41     c0,0.24,0.15,0.41,0.44,0.5c0.15,0.04,0.48,0.09,0.98,0.14l0.75,0.08c0.45,0.05,0.81,0.11,1.08,0.2c0.28,0.08,0.52,0.2,0.73,0.35     c0.22,0.16,0.39,0.36,0.51,0.61c0.13,0.25,0.19,0.53,0.19,0.82c0,0.46-0.15,0.86-0.44,1.22c-0.27,0.32-0.68,0.56-1.25,0.72     c-0.42,0.12-0.87,0.18-1.35,0.18c-0.86,0-1.71-0.21-2.55-0.62c-0.18-0.08-0.28-0.12-0.32-0.12c-0.04,0-0.11,0.03-0.2,0.1     l-0.14-0.07l0.71-1.6l0.14,0.07c0,0.03,0,0.05,0,0.06c0,0.14,0.07,0.27,0.2,0.4c0.21,0.18,0.53,0.34,0.96,0.48     c0.43,0.13,0.84,0.2,1.23,0.2c0.42,0,0.78-0.07,1.08-0.21c0.16-0.08,0.3-0.18,0.4-0.32c0.1-0.13,0.15-0.27,0.15-0.41     c0-0.22-0.12-0.37-0.35-0.46c-0.16-0.06-0.49-0.12-0.98-0.18L132,35.41c-0.49-0.05-0.84-0.1-1.04-0.15     c-0.2-0.05-0.41-0.12-0.61-0.22c-0.29-0.14-0.52-0.36-0.68-0.64c-0.15-0.26-0.22-0.55-0.22-0.89c0-0.55,0.19-1.01,0.57-1.37     c0.49-0.47,1.24-0.71,2.23-0.71c0.42,0,0.8,0.04,1.16,0.13c0.36,0.08,0.81,0.24,1.34,0.47c0.18,0.07,0.3,0.11,0.34,0.11     c0.07,0,0.15-0.04,0.23-0.11L135.46,32.1z"></path>
			<path class="st1" d="M145.57,36.4h-2.96l-0.44,0.92c-0.06,0.13-0.09,0.23-0.09,0.3c0,0.14,0.11,0.24,0.32,0.29v0.15h-2.15v-0.15     c0.13-0.03,0.23-0.07,0.29-0.13c0.07-0.06,0.14-0.19,0.23-0.37l2.39-5c0.08-0.16,0.11-0.29,0.11-0.38c0-0.15-0.09-0.25-0.28-0.32     v-0.15h2.31v0.15c-0.19,0.05-0.28,0.15-0.28,0.28c0,0.09,0.03,0.2,0.09,0.31l2.48,5.02c0.1,0.21,0.2,0.36,0.28,0.44     c0.08,0.08,0.19,0.13,0.32,0.15v0.15h-2.4v-0.15c0.21-0.03,0.32-0.13,0.32-0.3c0-0.07-0.03-0.17-0.1-0.3L145.57,36.4z      M145.16,35.51l-1.06-2.32l-1.07,2.32H145.16z"></path>
			<path class="st1" d="M154.83,36.99h4c0.1,0,0.17-0.02,0.22-0.07c0.05-0.04,0.09-0.12,0.12-0.24h0.15v1.68h-0.15     c-0.03-0.11-0.07-0.19-0.12-0.24s-0.13-0.07-0.22-0.07h-5.73v-0.15c0.12-0.03,0.19-0.07,0.24-0.12c0.05-0.05,0.07-0.13,0.07-0.22     v-5.51c0-0.1-0.02-0.17-0.07-0.22c-0.04-0.05-0.12-0.09-0.24-0.12v-0.15h2.03v0.15c-0.11,0.03-0.19,0.07-0.24,0.12     c-0.05,0.05-0.07,0.13-0.07,0.23V36.99z"></path>
		</g>
	</g>
	<path class="st1" d="M216.95,2.81H2.65v24.19h214.3V2.81z M216.2,26.25H3.4V3.55h212.8V26.25z"></path>
</g>
<g>
</g>
<g>
</g>
<g>
</g>
<g>
</g>
<g>
</g>
<g>
</g>
</svg>